<svg xmlns="http://www.w3.org/2000/svg" viewBox="0 0 64 64" role="img" aria-label="WhatsApp">
  <circle cx="32" cy="32" r="30" fill="#25d366"/>
  <path fill="#fff" d="M19.5 48.2l2-7.2A17.4 17.4 0 0 1 19 32a17.1 17.1 0 1 1 5 12.1l-4.5 4.1zm14.6-7.1c5 0 9.1-4 9.1-9s-4.1-9.1-9.1-9.1-9 4.1-9 9.1c0 1.7.5 3.3 1.3 4.7l.3.5-.7 2.7 2.8-.7.5.3a9 9 0 0 0 4.8 1.5z"/>
  <path fill="#25d366" d="M29.1 27.2c-.2-.6-.5-.6-.8-.6h-.7c-.3 0-.7.1-1 .5-.3.4-1.3 1.3-1.3 3.1s1.3 3.6 1.5 3.9c.2.2 2.6 4.1 6.4 5.6 3.2 1.3 3.9 1 4.6.9.7-.1 2.3-.9 2.6-1.8.3-.9.3-1.7.2-1.8-.1-.2-.3-.3-.7-.5l-2.6-1.3c-.4-.1-.7-.2-1 .2-.3.5-1.1 1.4-1.4 1.7-.2.3-.5.3-.9.1-.4-.2-1.7-.6-3.2-2-1.2-1.1-2-2.4-2.2-2.8-.2-.4 0-.6.2-.8l.6-.7c.2-.2.3-.4.4-.7.2-.2.1-.5 0-.7l-1.2-2.3z"/>
</svg>
